<svg width="20" height="20" viewBox="0 0 20 20" fill="none" xmlns="http://www.w3.org/2000/svg">
<path d="M10.2625 16.25C12.895 16.25 14.5275 14.8912 14.5275 12.7212C14.5275 11.0887 13.2975 9.86748 11.6225 9.73873V9.66998C12.2639 9.57341 12.8497 9.25076 13.2742 8.76024C13.6987 8.26973 13.934 7.64366 13.9375 6.99498C13.9375 5.10748 12.485 3.91998 10.17 3.91998H4.80371V16.25H10.2625ZM7.38496 5.84248H9.50496C10.7087 5.84248 11.4012 6.40623 11.4012 7.39748C11.4012 8.43998 10.615 9.04748 9.23871 9.04748H7.38496V5.84123V5.84248ZM7.38496 14.3275V10.7475H9.54746C11.0687 10.7475 11.8975 11.3625 11.8975 12.5162C11.8975 13.695 11.0937 14.3275 9.60746 14.3275H7.38371H7.38496Z" fill="currentColor"/>
</svg>
