<svg width="20" height="20" viewBox="0 0 20 20" fill="none" xmlns="http://www.w3.org/2000/svg">
<path d="M5.89352 8.1775L4.17852 9.8925C3.4752 10.5958 3.08008 11.5497 3.08008 12.5444C3.08008 13.539 3.4752 14.4929 4.17852 15.1962C4.88184 15.8996 5.83575 16.2947 6.8304 16.2947C7.82504 16.2947 8.77895 15.8996 9.48227 15.1962L11.7673 12.91C12.1914 12.4858 12.5076 11.9661 12.6893 11.3944C12.871 10.8228 12.9129 10.2159 12.8115 9.62467C12.7101 9.03346 12.4683 8.47521 12.1066 7.99676C11.7448 7.51831 11.2735 7.13362 10.7323 6.875L9.99977 7.6075C9.92541 7.682 9.86073 7.76557 9.80727 7.85625C10.2254 7.97646 10.605 8.20372 10.9084 8.51557C11.2118 8.82742 11.4286 9.21305 11.5373 9.63435C11.646 10.0556 11.6428 10.498 11.5282 10.9177C11.4135 11.3375 11.1913 11.72 10.8835 12.0275L8.59977 14.3125C8.13067 14.7816 7.49443 15.0451 6.83102 15.0451C6.16761 15.0451 5.53137 14.7816 5.06227 14.3125C4.59317 13.8434 4.32963 13.2072 4.32963 12.5437C4.32963 11.8803 4.59317 11.2441 5.06227 10.775L6.05352 9.785C5.91366 9.26091 5.85963 8.71762 5.89352 8.17625V8.1775Z" fill="currentColor"/>
<path d="M8.23293 5.84005C7.80881 6.26423 7.49263 6.78396 7.31094 7.35561C7.12925 7.92727 7.08733 8.53417 7.18873 9.12538C7.29012 9.71658 7.53185 10.2748 7.89364 10.7533C8.25543 11.2317 8.72671 11.6164 9.26793 11.875L10.2367 10.905C9.81286 10.7914 9.42643 10.5681 9.11622 10.2578C8.80601 9.94746 8.58294 9.56094 8.46944 9.13707C8.35594 8.71321 8.356 8.26694 8.46961 7.84311C8.58322 7.41927 8.80639 7.03281 9.11668 6.72255L11.4004 4.43755C11.8695 3.96844 12.5058 3.70491 13.1692 3.70491C13.8326 3.70491 14.4688 3.96844 14.9379 4.43755C15.407 4.90665 15.6706 5.54289 15.6706 6.2063C15.6706 6.86971 15.407 7.50594 14.9379 7.97505L13.9467 8.96505C14.0867 9.49005 14.1404 10.0338 14.1067 10.5738L15.8217 8.8588C16.525 8.15547 16.9201 7.20157 16.9201 6.20692C16.9201 5.21228 16.525 4.25837 15.8217 3.55505C15.1184 2.85173 14.1644 2.4566 13.1698 2.4566C12.1752 2.4566 11.2212 2.85173 10.5179 3.55505L8.23293 5.84005Z" fill="currentColor"/>
</svg>
