<svg width="20" height="20" viewBox="0 0 20 20" fill="none" xmlns="http://www.w3.org/2000/svg">
<path d="M7.91625 7.10747C7.91625 7.49497 8.02 7.83372 8.25375 8.12497H6.4575C6.37252 7.81554 6.33088 7.49583 6.33375 7.17497C6.33375 5.14122 8.12875 3.71497 10.6838 3.71497C13.145 3.71497 14.9212 5.18372 14.99 7.27747H13.4525C13.315 5.92747 12.2475 5.09872 10.64 5.09872C9.1025 5.09872 7.915 5.85122 7.915 7.10747H7.91625ZM10.6588 16.455C7.9675 16.455 6.1725 15.0712 6.0275 12.9425H7.565C7.745 14.2675 8.97625 15.0712 10.745 15.0712C12.42 15.0712 13.6325 14.19 13.6325 12.9775C13.6325 11.9437 12.9487 11.26 11.24 10.8837L10.0575 10.625H1.25V9.37497H18.75V10.625H14.37C14.955 11.1712 15.2137 11.8675 15.2137 12.7462C15.2137 15.0287 13.4188 16.455 10.6588 16.455Z" fill="currentColor"/>
</svg>
