<svg width="20" height="20" viewBox="0 0 20 20" fill="none" xmlns="http://www.w3.org/2000/svg">
<path d="M17.8125 3.75H6.40625C6.32031 3.75 6.25 3.82031 6.25 3.90625V5C6.25 5.08594 6.32031 5.15625 6.40625 5.15625H17.8125C17.8984 5.15625 17.9688 5.08594 17.9688 5V3.90625C17.9688 3.82031 17.8984 3.75 17.8125 3.75ZM17.8125 9.29688H6.40625C6.32031 9.29688 6.25 9.36719 6.25 9.45312V10.5469C6.25 10.6328 6.32031 10.7031 6.40625 10.7031H17.8125C17.8984 10.7031 17.9688 10.6328 17.9688 10.5469V9.45312C17.9688 9.36719 17.8984 9.29688 17.8125 9.29688ZM17.8125 14.8438H6.40625C6.32031 14.8438 6.25 14.9141 6.25 15V16.0938C6.25 16.1797 6.32031 16.25 6.40625 16.25H17.8125C17.8984 16.25 17.9688 16.1797 17.9688 16.0938V15C17.9688 14.9141 17.8984 14.8438 17.8125 14.8438ZM2.03125 4.45312C2.03125 4.59676 2.05954 4.73899 2.11451 4.87168C2.16947 5.00438 2.25004 5.12496 2.3516 5.22652C2.45317 5.32809 2.57374 5.40865 2.70644 5.46362C2.83914 5.51858 2.98137 5.54688 3.125 5.54688C3.26863 5.54688 3.41086 5.51858 3.54356 5.46362C3.67626 5.40865 3.79683 5.32809 3.8984 5.22652C3.99996 5.12496 4.08053 5.00438 4.13549 4.87168C4.19046 4.73899 4.21875 4.59676 4.21875 4.45312C4.21875 4.30949 4.19046 4.16726 4.13549 4.03457C4.08053 3.90187 3.99996 3.78129 3.8984 3.67973C3.79683 3.57816 3.67626 3.4976 3.54356 3.44263C3.41086 3.38767 3.26863 3.35938 3.125 3.35938C2.98137 3.35938 2.83914 3.38767 2.70644 3.44263C2.57374 3.4976 2.45317 3.57816 2.3516 3.67973C2.25004 3.78129 2.16947 3.90187 2.11451 4.03457C2.05954 4.16726 2.03125 4.30949 2.03125 4.45312ZM2.03125 10C2.03125 10.1436 2.05954 10.2859 2.11451 10.4186C2.16947 10.5513 2.25004 10.6718 2.3516 10.7734C2.45317 10.875 2.57374 10.9555 2.70644 11.0105C2.83914 11.0655 2.98137 11.0938 3.125 11.0938C3.26863 11.0938 3.41086 11.0655 3.54356 11.0105C3.67626 10.9555 3.79683 10.875 3.8984 10.7734C3.99996 10.6718 4.08053 10.5513 4.13549 10.4186C4.19046 10.2859 4.21875 10.1436 4.21875 10C4.21875 9.85637 4.19046 9.71414 4.13549 9.58144C4.08053 9.44874 3.99996 9.32817 3.8984 9.2266C3.79683 9.12504 3.67626 9.04447 3.54356 8.98951C3.41086 8.93454 3.26863 8.90625 3.125 8.90625C2.98137 8.90625 2.83914 8.93454 2.70644 8.98951C2.57374 9.04447 2.45317 9.12504 2.3516 9.2266C2.25004 9.32817 2.16947 9.44874 2.11451 9.58144C2.05954 9.71414 2.03125 9.85637 2.03125 10ZM2.03125 15.5469C2.03125 15.6905 2.05954 15.8327 2.11451 15.9654C2.16947 16.0981 2.25004 16.2187 2.3516 16.3203C2.45317 16.4218 2.57374 16.5024 2.70644 16.5574C2.83914 16.6123 2.98137 16.6406 3.125 16.6406C3.26863 16.6406 3.41086 16.6123 3.54356 16.5574C3.67626 16.5024 3.79683 16.4218 3.8984 16.3203C3.99996 16.2187 4.08053 16.0981 4.13549 15.9654C4.19046 15.8327 4.21875 15.6905 4.21875 15.5469C4.21875 15.4032 4.19046 15.261 4.13549 15.1283C4.08053 14.9956 3.99996 14.875 3.8984 14.7735C3.79683 14.6719 3.67626 14.5913 3.54356 14.5364C3.41086 14.4814 3.26863 14.4531 3.125 14.4531C2.98137 14.4531 2.83914 14.4814 2.70644 14.5364C2.57374 14.5913 2.45317 14.6719 2.3516 14.7735C2.25004 14.875 2.16947 14.9956 2.11451 15.1283C2.05954 15.261 2.03125 15.4032 2.03125 15.5469Z" fill="currentColor"/>
</svg>
